<mxfile host="app.diagrams.net" modified="2022-01-09T14:57:41.934Z" agent="5.0 (Macintosh; Intel Mac OS X 10_15_7) AppleWebKit/537.36 (KHTML, like Gecko) Chrome/96.0.4664.110 Safari/537.36" etag="sHcgetGPf5Uyzbuhw5YK" version="15.5.5" type="github">
  <diagram id="ZUt90-R5UI0e4E_RIMan" name="Page-1">
    <mxGraphModel dx="1243" dy="808" grid="0" gridSize="10" guides="1" tooltips="1" connect="1" arrows="1" fold="1" page="1" pageScale="1" pageWidth="827" pageHeight="1169" math="0" shadow="0">
      <root>
        <mxCell id="0" />
        <mxCell id="1" parent="0" />
        <mxCell id="uD6qEYLC0nWCSuIc1k4a-6" value="" style="edgeStyle=orthogonalEdgeStyle;orthogonalLoop=1;jettySize=auto;html=1;fontSize=18;" edge="1" parent="1" source="uD6qEYLC0nWCSuIc1k4a-1" target="uD6qEYLC0nWCSuIc1k4a-4">
          <mxGeometry relative="1" as="geometry" />
        </mxCell>
        <mxCell id="uD6qEYLC0nWCSuIc1k4a-1" value="&lt;font style=&quot;font-size: 18px&quot;&gt;开通 CDN&lt;/font&gt;" style="whiteSpace=wrap;html=1;glass=0;shadow=1;rounded=1;" vertex="1" parent="1">
          <mxGeometry x="98" y="318" width="140" height="60" as="geometry" />
        </mxCell>
        <mxCell id="uD6qEYLC0nWCSuIc1k4a-7" value="" style="edgeStyle=orthogonalEdgeStyle;orthogonalLoop=1;jettySize=auto;html=1;fontSize=18;" edge="1" parent="1" source="uD6qEYLC0nWCSuIc1k4a-4" target="uD6qEYLC0nWCSuIc1k4a-5">
          <mxGeometry relative="1" as="geometry" />
        </mxCell>
        <mxCell id="uD6qEYLC0nWCSuIc1k4a-4" value="&lt;font style=&quot;font-size: 18px&quot;&gt;添加域名、配置源站&lt;br&gt;&lt;/font&gt;" style="whiteSpace=wrap;html=1;glass=0;shadow=1;rounded=1;" vertex="1" parent="1">
          <mxGeometry x="318" y="318" width="200" height="60" as="geometry" />
        </mxCell>
        <mxCell id="uD6qEYLC0nWCSuIc1k4a-5" value="&lt;font style=&quot;font-size: 18px&quot;&gt;配置 CNAME&lt;/font&gt;" style="whiteSpace=wrap;html=1;glass=0;shadow=1;rounded=1;" vertex="1" parent="1">
          <mxGeometry x="598" y="318" width="150" height="60" as="geometry" />
        </mxCell>
      </root>
    </mxGraphModel>
  </diagram>
</mxfile>
